<svg width="646" height="115" viewBox="0 0 646 115" fill="none" xmlns="http://www.w3.org/2000/svg">
<rect x="388" width="258" height="115" fill="#FAF233"/>
<path d="M8.62354 45.0361V51.8755H24.2563V84.2031H8.62354V91H47.1108V84.2031H32.1152V45.0361H8.62354ZM23.2368 32.9717C23.2368 34.2461 23.6191 35.3081 24.3838 36.1577C25.1768 37.0073 26.3662 37.4321 27.9521 37.4321C29.5098 37.4321 30.6851 37.0073 31.478 36.1577C32.271 35.3081 32.6675 34.2461 32.6675 32.9717C32.6675 32.2637 32.5542 31.6123 32.3276 31.0176C32.1011 30.4229 31.7612 29.9272 31.3081 29.5308C30.9399 29.1626 30.4727 28.8794 29.9062 28.6812C29.3398 28.4546 28.6885 28.3413 27.9521 28.3413C27.2158 28.3413 26.5503 28.4546 25.9556 28.6812C25.3892 28.8794 24.9219 29.1626 24.5537 29.5308C24.1006 29.9556 23.7607 30.4653 23.5342 31.0601C23.3359 31.6548 23.2368 32.292 23.2368 32.9717ZM63.2534 45.0361H56.2017V91H63.6782V54.4243C63.8481 53.9712 64.0605 53.5464 64.3154 53.1499C64.5986 52.7534 64.9243 52.3994 65.2925 52.0879C65.7739 51.6914 66.3545 51.394 67.0342 51.1958C67.7422 50.9692 68.5635 50.856 69.498 50.856C70.3477 50.856 71.084 50.9692 71.707 51.1958C72.3584 51.394 72.8965 51.7197 73.3213 52.1729C73.7744 52.6543 74.1001 53.2632 74.2983 53.9995C74.5249 54.7358 74.6382 55.5854 74.6382 56.5483V91H82.1147V56.5908C82.1147 56.4209 82.1147 56.2793 82.1147 56.166C82.1147 56.0244 82.1147 55.8828 82.1147 55.7412C82.1997 55.0332 82.3696 54.396 82.6245 53.8296C82.8794 53.2349 83.2334 52.7109 83.6865 52.2578C84.1396 51.833 84.7061 51.4932 85.3857 51.2383C86.0654 50.9834 86.8726 50.856 87.8071 50.856C88.6851 50.856 89.4497 50.9692 90.1011 51.1958C90.7808 51.4224 91.3472 51.7622 91.8003 52.2153C92.2251 52.6968 92.5508 53.3057 92.7773 54.042C93.0039 54.7783 93.1172 55.6279 93.1172 56.5908V91H100.594V56.6758C100.594 54.4668 100.339 52.5552 99.8291 50.9409C99.3193 49.2983 98.583 47.9673 97.6201 46.9478C96.7422 46.0415 95.666 45.3618 94.3916 44.9087C93.1172 44.4272 91.687 44.1865 90.1011 44.1865C88.9399 44.2148 87.8638 44.3706 86.8726 44.6538C85.9097 44.937 85.0317 45.3193 84.2388 45.8008C83.6157 46.2256 83.0352 46.7212 82.4971 47.2876C81.959 47.854 81.4917 48.4629 81.0952 49.1143C80.7837 48.4062 80.4014 47.769 79.9482 47.2026C79.5234 46.6362 79.042 46.1548 78.5039 45.7583C77.7676 45.2485 76.9038 44.8662 75.9126 44.6113C74.9497 44.3281 73.8594 44.1865 72.6416 44.1865C70.4893 44.2148 68.6484 44.6821 67.1191 45.5884C65.6182 46.4946 64.4004 47.7549 63.4658 49.3691L63.2534 45.0361ZM132.199 91.8496C136.674 91.8496 140.426 90.9575 143.457 89.1733C146.515 87.3608 148.809 85.2935 150.338 82.9712L145.538 79.2329C144.094 81.1021 142.281 82.603 140.101 83.7358C137.92 84.8687 135.428 85.4351 132.624 85.4351C130.5 85.4351 128.56 85.0386 126.804 84.2456C125.048 83.4526 123.547 82.3623 122.301 80.9746C121.083 79.6719 120.121 78.1709 119.413 76.4717C118.733 74.7725 118.294 72.8042 118.096 70.5669V70.2695H150.933V66.7437C150.933 63.5435 150.522 60.5698 149.701 57.8228C148.908 55.0757 147.69 52.6826 146.048 50.6436C144.405 48.6328 142.338 47.061 139.846 45.9282C137.382 44.7671 134.493 44.1865 131.18 44.1865C128.546 44.1865 125.969 44.7246 123.448 45.8008C120.956 46.877 118.733 48.4204 116.779 50.4312C114.796 52.4702 113.21 54.9624 112.021 57.9077C110.832 60.8247 110.237 64.1382 110.237 67.8481V69.6323C110.237 72.8325 110.775 75.792 111.851 78.5107C112.927 81.2295 114.428 83.5801 116.354 85.5625C118.28 87.5449 120.588 89.0884 123.278 90.1929C125.997 91.2974 128.971 91.8496 132.199 91.8496ZM131.18 50.6436C133.19 50.6436 134.918 51.0117 136.362 51.748C137.835 52.4844 139.053 53.4473 140.016 54.6367C140.979 55.8262 141.729 57.2422 142.267 58.8848C142.805 60.499 143.074 62.0142 143.074 63.4302V63.8125H118.351C118.662 61.6885 119.2 59.8193 119.965 58.2051C120.758 56.5625 121.721 55.1748 122.854 54.042C123.986 52.9375 125.261 52.1021 126.677 51.5356C128.093 50.9409 129.594 50.6436 131.18 50.6436ZM194.263 44.1865C190.921 44.1865 187.934 44.9229 185.3 46.3955C182.694 47.8398 180.457 49.8223 178.588 52.3428L178.545 51.1958L178.206 45.0361H170.729V91H178.63V61.5186C179.14 60.1025 179.777 58.8281 180.542 57.6953C181.335 56.5342 182.255 55.5571 183.303 54.7642C184.464 53.8579 185.824 53.1782 187.381 52.7251C188.939 52.2437 190.681 52.0029 192.606 52.0029C194.107 52.0029 195.538 52.0879 196.897 52.2578C198.285 52.3994 199.743 52.6401 201.272 52.98L202.334 45.291C201.542 44.9512 200.352 44.6821 198.766 44.4839C197.208 44.2856 195.708 44.1865 194.263 44.1865ZM246.939 78.8081C246.939 79.5444 246.797 80.2383 246.514 80.8896C246.231 81.541 245.82 82.1357 245.282 82.6738C244.404 83.5518 243.187 84.2456 241.629 84.7554C240.071 85.2368 238.245 85.4775 236.149 85.4775C234.818 85.4775 233.473 85.3359 232.113 85.0527C230.754 84.7695 229.522 84.2881 228.417 83.6084C227.285 82.9287 226.336 82.0366 225.571 80.9321C224.835 79.8276 224.41 78.4683 224.297 76.854H216.438C216.438 78.8081 216.877 80.6914 217.755 82.5039C218.661 84.3164 219.964 85.9023 221.663 87.2617C223.334 88.6494 225.387 89.7681 227.823 90.6177C230.258 91.439 233.034 91.8496 236.149 91.8496C238.868 91.8496 241.374 91.5239 243.668 90.8726C245.962 90.2212 247.93 89.3008 249.573 88.1113C251.215 86.9219 252.49 85.4917 253.396 83.8208C254.331 82.1499 254.798 80.2949 254.798 78.2559C254.798 76.3584 254.387 74.6875 253.566 73.2432C252.773 71.7988 251.612 70.5244 250.083 69.4199C248.553 68.3438 246.67 67.4233 244.433 66.6587C242.195 65.8657 239.661 65.1719 236.829 64.5771C234.676 64.1523 232.892 63.7134 231.476 63.2603C230.088 62.8071 228.984 62.2974 228.163 61.731C227.313 61.1646 226.718 60.5273 226.378 59.8193C226.039 59.1113 225.869 58.3042 225.869 57.3979C225.869 56.52 226.081 55.6704 226.506 54.8491C226.931 54.0278 227.568 53.3057 228.417 52.6826C229.239 52.0596 230.272 51.564 231.519 51.1958C232.793 50.8276 234.266 50.6436 235.937 50.6436C237.551 50.6436 238.995 50.8701 240.27 51.3232C241.572 51.7764 242.677 52.3711 243.583 53.1074C244.489 53.8438 245.197 54.6934 245.707 55.6562C246.217 56.5908 246.472 57.5537 246.472 58.5449H254.331C254.331 56.5342 253.892 54.665 253.014 52.9375C252.164 51.1816 250.946 49.6523 249.36 48.3496C247.774 47.0469 245.849 46.0273 243.583 45.291C241.317 44.5547 238.769 44.1865 235.937 44.1865C233.303 44.1865 230.881 44.5405 228.672 45.2485C226.492 45.9565 224.608 46.9194 223.022 48.1372C221.437 49.355 220.205 50.7852 219.327 52.4277C218.449 54.042 218.01 55.7837 218.01 57.6528C218.01 59.5503 218.435 61.2212 219.284 62.6655C220.134 64.0815 221.337 65.3135 222.895 66.3613C224.424 67.4375 226.265 68.3579 228.417 69.1226C230.598 69.8872 233.005 70.5386 235.639 71.0767C237.792 71.5015 239.59 71.9829 241.034 72.521C242.479 73.0308 243.64 73.5972 244.518 74.2202C245.396 74.8433 246.019 75.5371 246.387 76.3018C246.755 77.0381 246.939 77.8735 246.939 78.8081ZM298.85 91H307.049V90.3203C306.539 89.0459 306.143 87.5591 305.859 85.8599C305.576 84.1323 305.435 82.5039 305.435 80.9746V59.6069C305.435 57.0298 304.967 54.7783 304.033 52.8525C303.098 50.9268 301.824 49.3125 300.209 48.0098C298.567 46.7354 296.627 45.7866 294.39 45.1636C292.152 44.5122 289.731 44.1865 287.125 44.1865C284.265 44.1865 281.702 44.583 279.437 45.376C277.199 46.1689 275.302 47.2026 273.744 48.4771C272.158 49.7798 270.94 51.2383 270.091 52.8525C269.27 54.4668 268.845 56.1094 268.816 57.7803H276.718C276.718 56.8174 276.944 55.897 277.397 55.019C277.879 54.1128 278.544 53.334 279.394 52.6826C280.244 52.0312 281.277 51.5073 282.495 51.1108C283.741 50.7144 285.143 50.5161 286.701 50.5161C288.372 50.5161 289.873 50.7285 291.204 51.1533C292.563 51.5781 293.71 52.1729 294.645 52.9375C295.579 53.7305 296.301 54.6792 296.811 55.7837C297.321 56.8882 297.576 58.1343 297.576 59.522V63.1328H288.995C285.794 63.1328 282.892 63.4443 280.286 64.0674C277.709 64.6904 275.5 65.625 273.659 66.8711C271.818 68.1455 270.388 69.7314 269.369 71.6289C268.377 73.5264 267.882 75.7354 267.882 78.2559C267.882 80.1816 268.25 81.98 268.986 83.6509C269.751 85.2935 270.827 86.7095 272.215 87.8989C273.574 89.1167 275.231 90.0796 277.185 90.7876C279.167 91.4956 281.376 91.8496 283.812 91.8496C285.313 91.8496 286.729 91.6938 288.06 91.3823C289.391 91.0708 290.651 90.646 291.841 90.1079C293.002 89.5698 294.064 88.9468 295.027 88.2388C296.018 87.5308 296.91 86.7803 297.703 85.9873C297.788 86.9502 297.916 87.8848 298.085 88.791C298.284 89.6689 298.539 90.4053 298.85 91ZM284.959 85.0103C283.43 85.0103 282.084 84.812 280.923 84.4155C279.762 84.019 278.799 83.4668 278.035 82.7588C277.27 82.0791 276.689 81.2578 276.293 80.2949C275.925 79.332 275.741 78.2842 275.741 77.1514C275.741 75.9619 275.953 74.8999 276.378 73.9653C276.831 73.0308 277.482 72.2236 278.332 71.5439C279.521 70.5811 281.122 69.873 283.132 69.4199C285.171 68.9385 287.55 68.6978 290.269 68.6978H297.576V78.001C297.123 78.9072 296.5 79.7852 295.707 80.6348C294.914 81.4561 293.979 82.1924 292.903 82.8438C291.798 83.4951 290.581 84.019 289.25 84.4155C287.918 84.812 286.488 85.0103 284.959 85.0103ZM302.418 26.3447L298.043 25.0703C298.043 25.7217 297.916 26.3447 297.661 26.9395C297.434 27.5059 297.137 28.0015 296.769 28.4263C296.372 28.8511 295.905 29.1909 295.367 29.4458C294.829 29.7007 294.262 29.8281 293.667 29.8281C292.563 29.8281 291.543 29.6157 290.609 29.1909C289.703 28.7661 288.811 28.2988 287.933 27.7891C287.026 27.3076 286.092 26.8545 285.129 26.4297C284.194 26.0049 283.132 25.7925 281.943 25.7925C280.64 25.7925 279.451 26.0615 278.375 26.5996C277.327 27.1377 276.42 27.8457 275.656 28.7236C274.891 29.6299 274.282 30.6777 273.829 31.8672C273.404 33.0283 273.192 34.2461 273.192 35.5205L277.61 36.54C277.638 35.2373 278.049 34.1328 278.842 33.2266C279.663 32.292 280.697 31.8247 281.943 31.8247C282.708 31.8247 283.401 31.9238 284.024 32.1221C284.647 32.3203 285.242 32.561 285.809 32.8442C286.347 33.1558 286.885 33.4956 287.423 33.8638C287.961 34.2036 288.542 34.5151 289.165 34.7983C289.759 35.1099 290.425 35.3647 291.161 35.563C291.897 35.7612 292.733 35.8604 293.667 35.8604C294.942 35.8604 296.117 35.6055 297.193 35.0957C298.27 34.5859 299.19 33.8921 299.955 33.0142C300.719 32.1646 301.314 31.1592 301.739 29.998C302.192 28.8369 302.418 27.6191 302.418 26.3447ZM318.688 67.5933V68.5278C318.688 71.8413 319.17 74.9141 320.133 77.7461C321.096 80.5781 322.483 83.042 324.296 85.1377C326.08 87.2334 328.261 88.876 330.838 90.0654C333.443 91.2549 336.375 91.8496 339.631 91.8496C342.86 91.8496 345.763 91.2549 348.34 90.0654C350.917 88.876 353.112 87.2334 354.924 85.1377C356.708 83.042 358.082 80.5781 359.045 77.7461C360.008 74.9141 360.489 71.8413 360.489 68.5278V67.5933C360.489 64.2798 360.008 61.207 359.045 58.375C358.082 55.5146 356.708 53.0366 354.924 50.9409C353.112 48.8452 350.903 47.2026 348.297 46.0132C345.72 44.7954 342.803 44.1865 339.546 44.1865C336.318 44.1865 333.415 44.7954 330.838 46.0132C328.261 47.2026 326.08 48.8452 324.296 50.9409C322.483 53.0366 321.096 55.5146 320.133 58.375C319.17 61.207 318.688 64.2798 318.688 67.5933ZM326.547 68.5278V67.5933C326.547 65.356 326.816 63.2178 327.354 61.1787C327.893 59.1113 328.714 57.2988 329.818 55.7412C330.895 54.1836 332.24 52.9517 333.854 52.0454C335.468 51.1108 337.366 50.6436 339.546 50.6436C341.727 50.6436 343.625 51.1108 345.239 52.0454C346.881 52.9517 348.255 54.1836 349.359 55.7412C350.436 57.2988 351.243 59.1113 351.781 61.1787C352.347 63.2178 352.63 65.356 352.63 67.5933V68.5278C352.63 70.7935 352.361 72.96 351.823 75.0273C351.285 77.0664 350.478 78.8647 349.402 80.4224C348.297 81.98 346.924 83.2119 345.281 84.1182C343.667 85.0244 341.784 85.4775 339.631 85.4775C337.451 85.4775 335.539 85.0244 333.896 84.1182C332.254 83.2119 330.895 81.98 329.818 80.4224C328.714 78.8647 327.893 77.0664 327.354 75.0273C326.816 72.96 326.547 70.7935 326.547 68.5278ZM423.913 67.6357V68.5278C423.913 71.813 424.352 74.8857 425.229 77.7461C426.107 80.5781 427.339 83.042 428.925 85.1377C430.511 87.2334 432.423 88.876 434.66 90.0654C436.926 91.2549 439.446 91.8496 442.222 91.8496C445.054 91.8496 447.532 91.3682 449.656 90.4053C451.78 89.4424 453.606 88.0264 455.136 86.1572L455.476 91H462.697V25.75H454.838V49.5815C453.337 47.8257 451.553 46.4946 449.486 45.5884C447.447 44.6538 445.054 44.1865 442.307 44.1865C439.503 44.1865 436.968 44.7671 434.703 45.9282C432.437 47.0894 430.511 48.7036 428.925 50.771C427.311 52.8384 426.065 55.3164 425.187 58.2051C424.337 61.0654 423.913 64.209 423.913 67.6357ZM431.771 68.5278V67.6357C431.771 65.3984 432.012 63.2744 432.494 61.2637C432.975 59.2246 433.726 57.4263 434.745 55.8687C435.736 54.3394 437.011 53.1216 438.568 52.2153C440.154 51.3091 442.052 50.856 444.261 50.856C446.838 50.856 448.99 51.4648 450.718 52.6826C452.445 53.8721 453.819 55.4014 454.838 57.2705V78.5957C453.819 80.6064 452.445 82.2065 450.718 83.396C448.99 84.5854 446.81 85.1802 444.176 85.1802C441.995 85.1802 440.126 84.7412 438.568 83.8633C437.011 82.957 435.736 81.7393 434.745 80.21C433.726 78.6807 432.975 76.9106 432.494 74.8999C432.012 72.8892 431.771 70.7651 431.771 68.5278ZM497.956 91.8496C502.431 91.8496 506.183 90.9575 509.213 89.1733C512.272 87.3608 514.566 85.2935 516.095 82.9712L511.295 79.2329C509.851 81.1021 508.038 82.603 505.857 83.7358C503.677 84.8687 501.185 85.4351 498.381 85.4351C496.257 85.4351 494.317 85.0386 492.561 84.2456C490.805 83.4526 489.304 82.3623 488.058 80.9746C486.84 79.6719 485.877 78.1709 485.169 76.4717C484.49 74.7725 484.051 72.8042 483.853 70.5669V70.2695H516.69V66.7437C516.69 63.5435 516.279 60.5698 515.458 57.8228C514.665 55.0757 513.447 52.6826 511.805 50.6436C510.162 48.6328 508.095 47.061 505.603 45.9282C503.139 44.7671 500.25 44.1865 496.937 44.1865C494.303 44.1865 491.726 44.7246 489.205 45.8008C486.713 46.877 484.49 48.4204 482.536 50.4312C480.553 52.4702 478.967 54.9624 477.778 57.9077C476.588 60.8247 475.994 64.1382 475.994 67.8481V69.6323C475.994 72.8325 476.532 75.792 477.608 78.5107C478.684 81.2295 480.185 83.5801 482.111 85.5625C484.037 87.5449 486.345 89.0884 489.035 90.1929C491.754 91.2974 494.728 91.8496 497.956 91.8496ZM496.937 50.6436C498.947 50.6436 500.675 51.0117 502.119 51.748C503.592 52.4844 504.81 53.4473 505.772 54.6367C506.735 55.8262 507.486 57.2422 508.024 58.8848C508.562 60.499 508.831 62.0142 508.831 63.4302V63.8125H484.107C484.419 61.6885 484.957 59.8193 485.722 58.2051C486.515 56.5625 487.478 55.1748 488.61 54.042C489.743 52.9375 491.018 52.1021 492.434 51.5356C493.85 50.9409 495.351 50.6436 496.937 50.6436ZM545.577 91H551.566L570.3 45.0361H562.271L549.4 79.7002L548.635 82.5464L547.913 79.7002L534.744 45.0361H526.673L545.577 91ZM620.3 97.4146V91H581.345V97.4146H620.3Z" fill="black"/>
</svg>
